<?xml version="1.0" encoding="UTF-8" standalone="no"?>
<!DOCTYPE svg PUBLIC "-//W3C//DTD SVG 1.1//EN" "http://www.w3.org/Graphics/SVG/1.1/DTD/svg11.dtd">
<svg width="100%" height="100%" viewBox="0 0 237 237" version="1.1" xmlns="http://www.w3.org/2000/svg" xmlns:xlink="http://www.w3.org/1999/xlink" xml:space="preserve" xmlns:serif="http://www.serif.com/" style="fill-rule:evenodd;clip-rule:evenodd;stroke-linejoin:round;stroke-miterlimit:1.41421;">
    <g transform="matrix(1,0,0,1,-145.636,-8372.77)">
        <g id="instagram-logo" transform="matrix(0.461368,0,0,0.461368,263.746,8490.88)">
            <g transform="matrix(1,0,0,1,-256,-256)">
                <g>
                    <path d="M255.99,307.249C284.234,307.249 307.26,284.265 307.26,256C307.26,244.843 303.609,234.541 297.567,226.127C288.255,213.216 273.118,204.751 256.021,204.751C238.913,204.751 223.786,213.206 214.454,226.116C208.391,234.531 204.771,244.832 204.761,255.99C204.73,284.254 227.735,307.249 255.99,307.249Z" style="fill:rgb(4,107,3);fill-rule:nonzero;"/>
                    <path d="M367.903,193.304L367.903,150.346L367.903,143.952L361.479,143.973L318.541,144.107L318.706,193.469L367.903,193.304Z" style="fill:rgb(4,107,3);fill-rule:nonzero;"/>
                    <path d="M256,0C114.842,0 0,114.842 0,256C0,397.148 114.842,512 256,512C397.148,512 512,397.148 512,256C512,114.842 397.168,0 256,0ZM401.592,226.127L401.592,345.331C401.592,376.38 376.349,401.613 345.321,401.613L166.679,401.613C135.641,401.613 110.408,376.38 110.408,345.331L110.408,226.127L110.408,166.69C110.408,135.651 135.641,110.418 166.679,110.418L345.31,110.418C376.349,110.418 401.592,135.651 401.592,166.69L401.592,226.127Z" style="fill:rgb(4,107,3);fill-rule:nonzero;"/>
                    <path d="M335.638,256C335.638,299.897 299.918,335.638 256,335.638C212.082,335.638 176.373,299.897 176.373,256C176.373,245.441 178.476,235.346 182.23,226.127L138.765,226.127L138.765,345.331C138.765,360.737 151.274,373.214 166.669,373.214L345.3,373.214C360.675,373.214 373.204,360.737 373.204,345.331L373.204,226.127L329.719,226.127C333.503,235.346 335.638,245.441 335.638,256Z" style="fill:rgb(4,107,3);fill-rule:nonzero;"/>
                </g>
            </g>
        </g>
    </g>
</svg>
