<?xml version="1.0" encoding="UTF-8" standalone="no"?>
<!DOCTYPE svg PUBLIC "-//W3C//DTD SVG 1.1//EN" "http://www.w3.org/Graphics/SVG/1.1/DTD/svg11.dtd">
<svg width="100%" height="100%" viewBox="0 0 237 237" version="1.1" xmlns="http://www.w3.org/2000/svg" xmlns:xlink="http://www.w3.org/1999/xlink" xml:space="preserve" xmlns:serif="http://www.serif.com/" style="fill-rule:evenodd;clip-rule:evenodd;stroke-linejoin:round;stroke-miterlimit:1.41421;">
    <g transform="matrix(1,0,0,1,-145.636,-7452.04)">
        <g id="twitter-logo-button" transform="matrix(0.461368,0,0,0.461368,263.746,7570.15)">
            <g transform="matrix(1,0,0,1,-256,-256)">
                <path d="M256,0C114.842,0 0,114.842 0,256C0,397.148 114.842,512 256,512C397.148,512 512,397.148 512,256C512,114.842 397.168,0 256,0ZM370.203,197.409C370.316,199.945 370.378,202.503 370.378,205.06C370.378,282.924 311.127,372.678 202.719,372.678C169.443,372.678 138.466,362.954 112.398,346.228C117.008,346.775 121.7,347.053 126.453,347.053C154.068,347.053 179.466,337.628 199.636,321.83C173.856,321.356 152.088,304.321 144.592,280.903C148.18,281.584 151.882,281.965 155.666,281.965C161.039,281.965 166.257,281.264 171.196,279.913C144.241,274.51 123.937,250.7 123.937,222.136C123.937,221.889 123.937,221.631 123.947,221.394C131.888,225.797 140.972,228.457 150.624,228.756C134.826,218.207 124.422,200.162 124.422,179.724C124.422,168.917 127.319,158.791 132.393,150.088C161.441,185.746 204.874,209.195 253.835,211.67C252.824,207.349 252.319,202.863 252.319,198.233C252.319,165.7 278.696,139.312 311.23,139.312C328.182,139.312 343.475,146.468 354.24,157.914C367.676,155.275 380.257,150.387 391.672,143.612C387.238,157.378 377.926,168.917 365.728,176.218C377.658,174.795 389.042,171.639 399.571,166.948C391.713,178.744 381.721,189.128 370.203,197.409Z" style="fill:rgb(4,107,3);fill-rule:nonzero;"/>
            </g>
        </g>
    </g>
</svg>
