<?xml version="1.0" encoding="UTF-8" standalone="no"?>
<!DOCTYPE svg PUBLIC "-//W3C//DTD SVG 1.1//EN" "http://www.w3.org/Graphics/SVG/1.1/DTD/svg11.dtd">
<svg width="100%" height="100%" viewBox="0 0 237 237" version="1.1" xmlns="http://www.w3.org/2000/svg" xmlns:xlink="http://www.w3.org/1999/xlink" xml:space="preserve" xmlns:serif="http://www.serif.com/" style="fill-rule:evenodd;clip-rule:evenodd;stroke-linejoin:round;stroke-miterlimit:1.41421;">
    <g transform="matrix(1,0,0,1,-145.636,-8065.84)">
        <g id="youtube-symbol" transform="matrix(0.461368,0,0,0.461368,263.746,8183.95)">
            <g transform="matrix(1,0,0,1,-256,-256)">
                <g>
                    <path d="M209.352,312.108C247.766,292.188 285.845,272.452 324.275,252.522C285.73,232.409 247.661,212.557 209.352,192.564C209.352,232.55 209.352,272.127 209.352,312.108Z" style="fill:rgb(4,107,3);fill-rule:nonzero;"/>
                    <path d="M256,0C114.62,0 0,114.615 0,256C0,397.385 114.62,512 256,512C397.38,512 512,397.385 512,256C512,114.615 397.38,0 256,0ZM430.426,341.45C425.994,360.673 410.27,374.852 391.346,376.963C346.526,381.976 301.166,382.002 255.99,381.976C210.813,382.002 165.443,381.976 120.612,376.963C101.688,374.852 85.974,360.673 81.553,341.45C75.252,314.067 75.252,284.185 75.252,256C75.252,227.815 75.326,197.923 81.627,170.55C86.047,151.327 101.761,137.143 120.685,135.027C165.516,130.019 210.886,129.993 256.063,130.019C301.229,129.993 346.599,130.019 391.414,135.027C410.349,137.143 426.073,151.322 430.494,170.55C436.795,197.928 436.743,227.815 436.743,256C436.743,284.185 436.727,314.072 430.426,341.45Z" style="fill:rgb(4,107,3);fill-rule:nonzero;"/>
                </g>
            </g>
        </g>
    </g>
</svg>
